<svg id="Layer_1" data-name="Layer 1" xmlns="http://www.w3.org/2000/svg" viewBox="0 0 490.77 95.52"><defs><style>.cls-1,.cls-2,.cls-3,.cls-4{fill:none;}.cls-1{stroke:#c69c6d;stroke-width:20px;}.cls-1,.cls-2,.cls-3{stroke-miterlimit:10;}.cls-2{stroke:#662d91;}.cls-2,.cls-3,.cls-4{stroke-linecap:round;stroke-width:6.93px;}.cls-3{stroke:#ba9bc9;}.cls-4{stroke:#f2f2f2;stroke-linejoin:round;}.cls-5{fill:#f2f2f2;}</style></defs><path class="cls-1" d="M26.14,256.21" transform="translate(-10.2 -208.45)"/><path class="cls-1" d="M97.68,256.21" transform="translate(-10.2 -208.45)"/><path class="cls-2" d="M22.74,256.21A35.22,35.22,0,1,1,58,291.43" transform="translate(-10.2 -208.45)"/><path class="cls-3" d="M80.7,256.21A22.74,22.74,0,1,1,58,233.48" transform="translate(-10.2 -208.45)"/><path class="cls-2" d="M46.57,256.21A11.39,11.39,0,1,1,58,267.6" transform="translate(-10.2 -208.45)"/><polyline class="cls-4" points="12.54 92.05 3.46 92.05 3.46 3.46 70.49 3.46"/><polyline class="cls-4" points="82.98 3.46 92.05 3.46 92.05 92.05 25.02 92.05"/><path class="cls-5" d="M132,298.54a16.89,16.89,0,0,1-5.29-5,21.12,21.12,0,0,1-3.14-6.83,28.7,28.7,0,0,1-1-7.33V272c0-4.07-1-7-2.87-8.8s-4.83-2.69-8.75-2.69V252c3.92,0,6.83-.89,8.75-2.67s2.87-4.75,2.87-8.91V233a30.79,30.79,0,0,1,1.07-7.85,19.69,19.69,0,0,1,3.37-7.08,14.86,14.86,0,0,1,5.11-4.37,16.24,16.24,0,0,1,7.6-1.74l1.4,6.7a6.66,6.66,0,0,0-4.43,1.24,7.29,7.29,0,0,0-2.31,3.37,15.87,15.87,0,0,0-.9,4.66c-.09,1.72-.14,3.41-.14,5.07v7.42a17.48,17.48,0,0,1-2.62,9.57,16.34,16.34,0,0,1-8.15,6.31,16.07,16.07,0,0,1,8.17,6.24,17.45,17.45,0,0,1,2.6,9.5v7.42a42.27,42.27,0,0,0,.32,5.12,16.94,16.94,0,0,0,1.22,4.66,8.44,8.44,0,0,0,2.37,3.34,5.64,5.64,0,0,0,3.87,1.22l-1.4,6.75A14.72,14.72,0,0,1,132,298.54Z" transform="translate(-10.2 -208.45)"/><path class="cls-5" d="M474.67,292.54A8.44,8.44,0,0,0,477,289.2a19.37,19.37,0,0,0,1.22-4.66,37,37,0,0,0,.36-5.12V272a19.32,19.32,0,0,1,.71-5.29,14.86,14.86,0,0,1,2.15-4.57,15.19,15.19,0,0,1,3.09-3.33,18.3,18.3,0,0,1,4.33-2.51,18.47,18.47,0,0,1-3.76-2.1,15.56,15.56,0,0,1-2.85-2.69,14.63,14.63,0,0,1-2.78-5.09,20.14,20.14,0,0,1-.89-6V233q0-2.49-.15-5.07a17.3,17.3,0,0,0-.89-4.66,7.72,7.72,0,0,0-2.33-3.37,6.63,6.63,0,0,0-4.45-1.24l1.4-6.7a16.06,16.06,0,0,1,8,2,15.6,15.6,0,0,1,5.36,5.11,19.93,19.93,0,0,1,2.92,6.72,31.37,31.37,0,0,1,.88,7.26v7.42a19.22,19.22,0,0,0,.48,4.54,9.48,9.48,0,0,0,1.47,3.38,7.78,7.78,0,0,0,3.8,2.78A17.18,17.18,0,0,0,501,252v8.55a16.35,16.35,0,0,0-6.11,1,7.57,7.57,0,0,0-3.8,3.16,9.8,9.8,0,0,0-1.27,3.17,19.15,19.15,0,0,0-.41,4.16v7.42a27.27,27.27,0,0,1-1,7.35,22.61,22.61,0,0,1-3.07,6.77,15.76,15.76,0,0,1-5.32,5,15.09,15.09,0,0,1-7.76,1.93l-1.4-6.75A5.62,5.62,0,0,0,474.67,292.54Z" transform="translate(-10.2 -208.45)"/><path class="cls-5" d="M157.22,227.65a6.17,6.17,0,0,1,2-2.5,5.16,5.16,0,0,1,3.09-.91,6,6,0,0,1,1.65.21,3.45,3.45,0,0,1,1.26.66,3.06,3.06,0,0,1,.73.79,4.4,4.4,0,0,1,.52,1,6,6,0,0,1,.75-1,5.21,5.21,0,0,1,.92-.79,5.37,5.37,0,0,1,1.41-.66,6.17,6.17,0,0,1,1.72-.23,5.79,5.79,0,0,1,2.18.41,4.55,4.55,0,0,1,1.77,1.3,6.48,6.48,0,0,1,1.16,2.37,13,13,0,0,1,.41,3.49v18.34h-5.57V231.78a4,4,0,0,0-.16-1.23,2.09,2.09,0,0,0-.45-.81,1.61,1.61,0,0,0-.66-.4,2.66,2.66,0,0,0-.82-.12,2.45,2.45,0,0,0-.8.12,2.53,2.53,0,0,0-.64.31,2.13,2.13,0,0,0-.43.47,1.82,1.82,0,0,0-.27.58v19.45h-5.43V231.76a4.79,4.79,0,0,0-.14-1.23,2,2,0,0,0-.4-.79,1.61,1.61,0,0,0-.66-.4,2.71,2.71,0,0,0-.82-.12,2.56,2.56,0,0,0-.87.14,2.16,2.16,0,0,0-.69.43,1.58,1.58,0,0,0-.36.47,5.14,5.14,0,0,0-.27.58v19.31h-5.57V224.71H157Z" transform="translate(-10.2 -208.45)"/><path class="cls-5" d="M195.4,245.44a5.41,5.41,0,0,0,1.62-.84,4,4,0,0,0,1.11-1.31,3.43,3.43,0,0,0,.37-1.7h5.74a7.44,7.44,0,0,1-.84,3.58,8.83,8.83,0,0,1-2.34,2.86,11.24,11.24,0,0,1-3.39,1.92,12.19,12.19,0,0,1-4.11.69,12.44,12.44,0,0,1-5.16-1,10.58,10.58,0,0,1-3.7-2.75,11.93,11.93,0,0,1-2.24-4.07,15.84,15.84,0,0,1-.77-5v-.76a16.13,16.13,0,0,1,.75-5A12,12,0,0,1,184.7,228a10.51,10.51,0,0,1,3.69-2.75,12.2,12.2,0,0,1,5.15-1,12.68,12.68,0,0,1,4.3.7,10.17,10.17,0,0,1,3.41,2,8.54,8.54,0,0,1,2.22,3.07,9.55,9.55,0,0,1,.77,4H198.5a4.54,4.54,0,0,0-.34-1.87,4.29,4.29,0,0,0-1-1.51,5.06,5.06,0,0,0-1.62-1,5.56,5.56,0,0,0-2.07-.38,4.88,4.88,0,0,0-4.47,2.45,7.71,7.71,0,0,0-.93,2.53,15.63,15.63,0,0,0-.27,2.92v.76a16.69,16.69,0,0,0,.26,2.95,7.17,7.17,0,0,0,.94,2.52,4.92,4.92,0,0,0,1.73,1.78,5.18,5.18,0,0,0,2.76.67A5.91,5.91,0,0,0,195.4,245.44Z" transform="translate(-10.2 -208.45)"/><path class="cls-5" d="M223.35,224.71v25.93a11.87,11.87,0,0,1-.72,4.35,7.71,7.71,0,0,1-2.08,3,8.49,8.49,0,0,1-3.34,1.81,15.81,15.81,0,0,1-4.49.59l-1.27,0c-.42,0-.84,0-1.25-.1l-.92-.11-.93-.17.33-4.94a7,7,0,0,0,.83.13c.35,0,.72.07,1.09.08a9.51,9.51,0,0,0,1.05.06h.74a7.15,7.15,0,0,0,1.89-.23,3.85,3.85,0,0,0,1.54-.8,3.63,3.63,0,0,0,1-1.45,5.85,5.85,0,0,0,.38-2.24V229.72h-6.87v-5Zm-5.71-8.88a3.46,3.46,0,0,1,2.58-1,3.57,3.57,0,0,1,2.6.93,3.38,3.38,0,0,1,0,4.7,3.57,3.57,0,0,1-2.6.93,3.44,3.44,0,0,1-2.56-.94,3.18,3.18,0,0,1-.94-2.35A3.24,3.24,0,0,1,217.64,215.83Z" transform="translate(-10.2 -208.45)"/><path class="cls-5" d="M251.21,249a11.13,11.13,0,0,1-.26-1.35,9.73,9.73,0,0,1-1.3,1.14,9.58,9.58,0,0,1-1.6.93,10.62,10.62,0,0,1-2,.63,10.08,10.08,0,0,1-2.25.24,10.89,10.89,0,0,1-3.61-.57,8.24,8.24,0,0,1-2.79-1.57,7.08,7.08,0,0,1-2.47-5.43,8.14,8.14,0,0,1,.83-3.74,6.8,6.8,0,0,1,2.44-2.68,11.14,11.14,0,0,1,3.66-1.5,22.39,22.39,0,0,1,5-.5h3.87V233a4.67,4.67,0,0,0-.3-1.72,3.36,3.36,0,0,0-.92-1.29,4.52,4.52,0,0,0-1.56-.87,7,7,0,0,0-2.15-.3,6.32,6.32,0,0,0-1.89.25,3.6,3.6,0,0,0-1.33.73,2.56,2.56,0,0,0-.73,1,3.46,3.46,0,0,0-.24,1.3h-6.09a6.57,6.57,0,0,1,.72-3,7.73,7.73,0,0,1,2.08-2.52,10.52,10.52,0,0,1,3.33-1.76,14.34,14.34,0,0,1,4.48-.64,15.4,15.4,0,0,1,4.23.55,10.13,10.13,0,0,1,3.41,1.66,7.93,7.93,0,0,1,2.23,2.76,8.58,8.58,0,0,1,.82,3.87v11.09a18.72,18.72,0,0,0,.25,3.24,8.94,8.94,0,0,0,.74,2.34v.4H251.6A5.62,5.62,0,0,1,251.21,249ZM247,245.57a6.2,6.2,0,0,0,1.62-.67,5,5,0,0,0,1.26-.93,4.69,4.69,0,0,0,.83-1.07v-4.53h-3.47a12.13,12.13,0,0,0-2.9.3,5.19,5.19,0,0,0-2,.9,3.52,3.52,0,0,0-1,1.29,3.9,3.9,0,0,0-.34,1.65,3.57,3.57,0,0,0,.26,1.35,2.9,2.9,0,0,0,.77,1.07,4,4,0,0,0,1.25.64,5.41,5.41,0,0,0,1.74.25A7.13,7.13,0,0,0,247,245.57Z" transform="translate(-10.2 -208.45)"/><path class="cls-5" d="M262.77,224.71h6.33l6,18.19.35,1.74.38-1.74,5.87-18.19H288l-9.81,25.44h-5.54Z" transform="translate(-10.2 -208.45)"/><path class="cls-5" d="M309,249a13.45,13.45,0,0,1-.26-1.35,9,9,0,0,1-1.29,1.14,10,10,0,0,1-1.6.93,10.62,10.62,0,0,1-1.95.63,10.17,10.17,0,0,1-2.26.24,10.93,10.93,0,0,1-3.61-.57,8.28,8.28,0,0,1-2.78-1.57,7.08,7.08,0,0,1-2.47-5.43,8.14,8.14,0,0,1,.82-3.74,6.91,6.91,0,0,1,2.45-2.68,11.08,11.08,0,0,1,3.65-1.5,22.39,22.39,0,0,1,4.95-.5h3.88V233a4.67,4.67,0,0,0-.3-1.72,3.47,3.47,0,0,0-.92-1.29,4.52,4.52,0,0,0-1.56-.87,7,7,0,0,0-2.16-.3,6.32,6.32,0,0,0-1.89.25,3.76,3.76,0,0,0-1.33.73,2.54,2.54,0,0,0-.72,1,3.46,3.46,0,0,0-.24,1.3h-6.09a6.57,6.57,0,0,1,.72-3,7.73,7.73,0,0,1,2.08-2.52,10.52,10.52,0,0,1,3.33-1.76,14.27,14.27,0,0,1,4.47-.64,15.53,15.53,0,0,1,4.24.55,10.08,10.08,0,0,1,3.4,1.66,7.85,7.85,0,0,1,2.24,2.76,8.58,8.58,0,0,1,.82,3.87v11.09a17.77,17.77,0,0,0,.25,3.24,8.58,8.58,0,0,0,.74,2.34v.4h-6.21A6.31,6.31,0,0,1,309,249Zm-4.18-3.46a6.5,6.5,0,0,0,1.62-.67,5.21,5.21,0,0,0,1.26-.93,4.69,4.69,0,0,0,.83-1.07v-4.53H305a12,12,0,0,0-2.89.3,5.19,5.19,0,0,0-1.95.9,3.33,3.33,0,0,0-1,1.29,3.9,3.9,0,0,0-.34,1.65,3.56,3.56,0,0,0,.25,1.35,3,3,0,0,0,.78,1.07,3.86,3.86,0,0,0,1.25.64,5.41,5.41,0,0,0,1.74.25A7.13,7.13,0,0,0,304.81,245.57Z" transform="translate(-10.2 -208.45)"/><path class="cls-5" d="M325.07,237.52v-4.91H344.3v4.91Z" transform="translate(-10.2 -208.45)"/><path class="cls-5" d="M348.37,224.71h5.55L356,240.06l.35,2.68.49-2.68,3-15.35h4L367,240l.49,2.77.4-2.79,2.07-15.26h5.55l-4.75,25.44h-5.24l-3.06-14-.56-2.86-.54,2.86-3,14h-5.24Z" transform="translate(-10.2 -208.45)"/><path class="cls-5" d="M395.2,224.71v20.45h7.2v5H381.52v-5h7.55V229.72h-7.55v-5Zm-6.37-7.88a3.14,3.14,0,0,1,.73-1.06,3,3,0,0,1,1.09-.65,4.16,4.16,0,0,1,1.45-.24,3.52,3.52,0,0,1,2.41.8,3.12,3.12,0,0,1,.28,4.23,6.26,6.26,0,0,1-3.5,1.17,3.3,3.3,0,0,1-1.35-.44,2.35,2.35,0,0,1-1-1,3,3,0,0,1-.36-1.46A3.48,3.48,0,0,1,388.83,216.83Z" transform="translate(-10.2 -208.45)"/><path class="cls-5" d="M415,242.18v8H409V214H415V235l2.17-2.42,7.31-7.85h7.31l-9.73,10.6,11.12,14.84h-7.5l-7.64-10.8Z" transform="translate(-10.2 -208.45)"/><path class="cls-5" d="M453,224.71v20.45h7.19v5H439.31v-5h7.54V229.72h-7.54v-5Zm-6.37-7.88a3,3,0,0,1,.73-1.06,3,3,0,0,1,1.09-.65,4.12,4.12,0,0,1,1.45-.24,3.54,3.54,0,0,1,2.41.8,2.89,2.89,0,0,1,1,2.09,2.85,2.85,0,0,1-.69,2.14,6.26,6.26,0,0,1-3.5,1.17,3.3,3.3,0,0,1-1.36-.44,2.4,2.4,0,0,1-1-1,3.09,3.09,0,0,1-.35-1.46A3.48,3.48,0,0,1,446.62,216.83Z" transform="translate(-10.2 -208.45)"/><path class="cls-5" d="M420.41,275a3.24,3.24,0,0,0-1.09-.74,3.68,3.68,0,0,0-1.5-.28,3.45,3.45,0,0,0-1.37.26,3.13,3.13,0,0,0-1.09.75,4.46,4.46,0,0,0-.81,1.19,6.42,6.42,0,0,0-.47,1.57h7.27v-.3a3.82,3.82,0,0,0-.25-1.33A3.64,3.64,0,0,0,420.41,275Z" transform="translate(-10.2 -208.45)"/><path class="cls-5" d="M400.84,274.54A3.39,3.39,0,0,0,399,274a3.09,3.09,0,0,0-1.62.4,3.16,3.16,0,0,0-1.09,1.09,5.29,5.29,0,0,0-.62,1.65,9.75,9.75,0,0,0-.2,2v.32a10.21,10.21,0,0,0,.19,2,4.89,4.89,0,0,0,.63,1.62,3,3,0,0,0,1.07,1.08,3,3,0,0,0,1.61.4,3.45,3.45,0,0,0,1.92-.5,3.57,3.57,0,0,0,1.2-1.37v-6.81A3.58,3.58,0,0,0,400.84,274.54Z" transform="translate(-10.2 -208.45)"/><path class="cls-5" d="M163.19,263v33.56H448.78V263Zm67.64,3.08a2,2,0,0,1,.47-.68,2,2,0,0,1,.7-.42,2.67,2.67,0,0,1,.93-.15,2.25,2.25,0,0,1,1.54.51,2,2,0,0,1,.18,2.72,4,4,0,0,1-2.24.74,1.9,1.9,0,0,1-.87-.28,1.54,1.54,0,0,1-.65-.64,2,2,0,0,1-.23-.94A2.2,2.2,0,0,1,230.83,266.09Zm-37.07,0a2,2,0,0,1,.47-.68,2,2,0,0,1,.7-.42,2.71,2.71,0,0,1,.93-.15,2.24,2.24,0,0,1,1.54.51,2,2,0,0,1,.18,2.72,4,4,0,0,1-2.24.74,1.9,1.9,0,0,1-.87-.28,1.54,1.54,0,0,1-.65-.64,2,2,0,0,1-.23-.94A2.2,2.2,0,0,1,193.76,266.09Zm-11.61,21.37h-3.37l-2-9-.36-1.84-.34,1.84-1.91,9h-3.36l-3-16.32h3.55l1.36,9.85.23,1.72.31-1.72,1.94-9.85h2.59l1.94,9.81.32,1.78.26-1.8,1.32-9.79h3.56Zm20.31,0H189.07v-3.2h4.84v-9.9h-4.84v-3.22h8.78v13.12h4.61Zm15,0-4.9-6.92-1.94,1.81v5.11h-3.9V264.3h3.9v13.43l1.38-1.55,4.69-5h4.69L215.1,278l7.13,9.51Zm22.11,0H226.14v-3.2H231v-9.9h-4.84v-3.22h8.78v13.12h4.61Zm13.33-.44a3.14,3.14,0,0,1-4.05,0,2.58,2.58,0,0,1-.73-1.85,2.69,2.69,0,0,1,.72-1.89,2.65,2.65,0,0,1,2-.77,2.7,2.7,0,0,1,2,.77,2.6,2.6,0,0,1,.73,1.89A2.52,2.52,0,0,1,252.86,287Zm24.39.44h-3.58V275.68a2.62,2.62,0,0,0-.1-.79,1.44,1.44,0,0,0-.29-.52,1.14,1.14,0,0,0-.42-.26,1.79,1.79,0,0,0-.53-.07,1.61,1.61,0,0,0-.51.07,2.23,2.23,0,0,0-.41.2,1.58,1.58,0,0,0-.28.3,1.46,1.46,0,0,0-.17.38v12.47h-3.48V275.67a3,3,0,0,0-.09-.79,1.22,1.22,0,0,0-.26-.51,1.14,1.14,0,0,0-.42-.26,1.79,1.79,0,0,0-.53-.07,1.6,1.6,0,0,0-.56.09,1.34,1.34,0,0,0-.44.27,1.19,1.19,0,0,0-.23.3,2.59,2.59,0,0,0-.17.38v12.38H261.2V271.14h3.37l.12,1.89a4,4,0,0,1,1.29-1.6,3.29,3.29,0,0,1,2-.59A3.76,3.76,0,0,1,269,271a2.2,2.2,0,0,1,.82.42,2.08,2.08,0,0,1,.47.51,3,3,0,0,1,.33.67,4,4,0,0,1,.48-.66,3.07,3.07,0,0,1,.59-.5,3.12,3.12,0,0,1,.9-.43,3.85,3.85,0,0,1,1.1-.15,3.62,3.62,0,0,1,1.41.27,2.84,2.84,0,0,1,1.13.83,4.15,4.15,0,0,1,.74,1.52,8.08,8.08,0,0,1,.27,2.24Zm7.21-6a4.61,4.61,0,0,0,.6,1.62,3,3,0,0,0,1.11,1.14,3.32,3.32,0,0,0,1.77.43,3.92,3.92,0,0,0,1.24-.19,3.81,3.81,0,0,0,1-.55,2.56,2.56,0,0,0,.71-.83,2.25,2.25,0,0,0,.24-1.1h3.68a4.76,4.76,0,0,1-.54,2.3,5.5,5.5,0,0,1-1.5,1.83,6.75,6.75,0,0,1-2.18,1.23,7.65,7.65,0,0,1-2.63.45,8,8,0,0,1-3.31-.65,6.69,6.69,0,0,1-2.37-1.76,7.55,7.55,0,0,1-1.44-2.61,10.12,10.12,0,0,1-.49-3.2v-.48a10.36,10.36,0,0,1,.48-3.2,7.37,7.37,0,0,1,1.45-2.62,6.64,6.64,0,0,1,2.36-1.77,8,8,0,0,1,3.31-.65,8.24,8.24,0,0,1,2.76.45,6.8,6.8,0,0,1,2.18,1.27,5.53,5.53,0,0,1,1.43,2,6.25,6.25,0,0,1,.49,2.56h-3.68a2.82,2.82,0,0,0-.22-1.2,3,3,0,0,0-.66-1,3.18,3.18,0,0,0-1-.66,3.52,3.52,0,0,0-1.32-.24,3.22,3.22,0,0,0-1.75.43,3.3,3.3,0,0,0-1.12,1.14,5,5,0,0,0-.6,1.62,10.52,10.52,0,0,0-.17,1.88v.48A10.63,10.63,0,0,0,284.46,281.45ZM310,287.78a7.62,7.62,0,0,1-.46,2.79,4.9,4.9,0,0,1-1.34,1.94,5.33,5.33,0,0,1-2.14,1.16,9.76,9.76,0,0,1-2.88.38h-.81c-.27,0-.54,0-.8-.06l-.6-.08-.59-.1.21-3.17a4,4,0,0,0,.53.08c.23,0,.46,0,.71.05s.45,0,.67,0H303a4.8,4.8,0,0,0,1.22-.15,2.35,2.35,0,0,0,1.63-1.44,3.8,3.8,0,0,0,.24-1.44V274.36h-4.4v-3.22H310Zm-.34-19.33a2.28,2.28,0,0,1-1.67.6,2.19,2.19,0,0,1-1.64-.61,2,2,0,0,1-.6-1.5,2.08,2.08,0,0,1,.59-1.49,2.2,2.2,0,0,1,1.65-.61,2.28,2.28,0,0,1,1.67.6,2,2,0,0,1,.61,1.5A2,2,0,0,1,309.68,268.45Zm22.45,19h-4a3.65,3.65,0,0,1-.26-.71,7.88,7.88,0,0,1-.17-.87,5.84,5.84,0,0,1-.82.73,6.94,6.94,0,0,1-1,.6,6.54,6.54,0,0,1-1.25.4,6.72,6.72,0,0,1-1.45.15,7,7,0,0,1-2.31-.36,5.29,5.29,0,0,1-1.79-1,4.57,4.57,0,0,1-1.17-1.55,4.46,4.46,0,0,1-.42-1.93,5.24,5.24,0,0,1,.53-2.4,4.45,4.45,0,0,1,1.57-1.72,7.22,7.22,0,0,1,2.35-1,14.4,14.4,0,0,1,3.17-.32h2.49v-1a2.92,2.92,0,0,0-.2-1.1,2.11,2.11,0,0,0-.59-.83,2.77,2.77,0,0,0-1-.56,4.47,4.47,0,0,0-1.38-.19,4,4,0,0,0-1.21.16,2.24,2.24,0,0,0-.85.47,1.55,1.55,0,0,0-.47.66,2.23,2.23,0,0,0-.15.83h-3.91a4.18,4.18,0,0,1,.46-1.92,4.88,4.88,0,0,1,1.34-1.62,6.52,6.52,0,0,1,2.13-1.12,9.07,9.07,0,0,1,2.87-.42,9.83,9.83,0,0,1,2.72.36,6.42,6.42,0,0,1,2.18,1.06A5,5,0,0,1,331,274a5.55,5.55,0,0,1,.52,2.48v7.12a12.09,12.09,0,0,0,.16,2.07,6,6,0,0,0,.48,1.51Zm13.07,0h-3.56l-6.33-16.32h4.06l3.83,11.68.22,1.11.25-1.11,3.77-11.68h4.05Zm24,0h-4a3.65,3.65,0,0,1-.26-.71,7.88,7.88,0,0,1-.17-.87,5.41,5.41,0,0,1-.83.73,6.36,6.36,0,0,1-1,.6,6.54,6.54,0,0,1-1.25.4,6.79,6.79,0,0,1-1.45.15,7.1,7.1,0,0,1-2.32-.36,5.33,5.33,0,0,1-1.78-1,4.57,4.57,0,0,1-1.59-3.48,5.24,5.24,0,0,1,.53-2.4,4.45,4.45,0,0,1,1.57-1.72,7.22,7.22,0,0,1,2.35-1,14.4,14.4,0,0,1,3.17-.32h2.49v-1a2.92,2.92,0,0,0-.2-1.1,2.11,2.11,0,0,0-.59-.83,2.77,2.77,0,0,0-1-.56,4.47,4.47,0,0,0-1.38-.19,4,4,0,0,0-1.21.16,2.24,2.24,0,0,0-.85.47,1.55,1.55,0,0,0-.47.66,2.23,2.23,0,0,0-.15.83H354.9a4.18,4.18,0,0,1,.46-1.92,4.88,4.88,0,0,1,1.34-1.62,6.52,6.52,0,0,1,2.13-1.12,9.07,9.07,0,0,1,2.87-.42,9.83,9.83,0,0,1,2.72.36,6.42,6.42,0,0,1,2.18,1.06A5.09,5.09,0,0,1,368,274a5.55,5.55,0,0,1,.52,2.48v7.12a12.09,12.09,0,0,0,.16,2.07,6,6,0,0,0,.48,1.51Zm13.4-.44a2.74,2.74,0,0,1-2,.74,2.69,2.69,0,0,1-2-.74,2.55,2.55,0,0,1-.74-1.85,2.69,2.69,0,0,1,.72-1.89,2.65,2.65,0,0,1,2-.77,2.7,2.7,0,0,1,2,.77,2.6,2.6,0,0,1,.73,1.89A2.52,2.52,0,0,1,382.6,287Zm23.35.44h-3.53l-.19-1.7a5.7,5.7,0,0,1-1.84,1.48,5.5,5.5,0,0,1-2.46.52,5.71,5.71,0,0,1-2.67-.62,5.87,5.87,0,0,1-2-1.73,8.15,8.15,0,0,1-1.27-2.63,11.46,11.46,0,0,1-.45-3.28v-.32a12.42,12.42,0,0,1,.44-3.39,7.72,7.72,0,0,1,1.27-2.64,5.7,5.7,0,0,1,2-1.7,5.77,5.77,0,0,1,2.7-.61,5.43,5.43,0,0,1,2.32.47,5.36,5.36,0,0,1,1.76,1.33V264.3H406Zm19.24-6.92H414v.06a6.61,6.61,0,0,0,.53,1.69,4.19,4.19,0,0,0,.92,1.19,4.41,4.41,0,0,0,1.38.84,4.45,4.45,0,0,0,1.71.31,6.16,6.16,0,0,0,2.44-.5,4.67,4.67,0,0,0,1.9-1.45l2,2.07a7.17,7.17,0,0,1-2.51,2.09,8.59,8.59,0,0,1-4.08.92,8.87,8.87,0,0,1-3.37-.61,7.87,7.87,0,0,1-2.61-1.68,7.18,7.18,0,0,1-1.67-2.5,8.13,8.13,0,0,1-.59-3.09v-.61a9.45,9.45,0,0,1,.6-3.44,8.07,8.07,0,0,1,1.65-2.67,7.54,7.54,0,0,1,2.48-1.71,8.31,8.31,0,0,1,6.2,0,6.53,6.53,0,0,1,2.31,1.64,7,7,0,0,1,1.42,2.55,10.52,10.52,0,0,1,.48,3.26Zm12.69,6.92h-3.56L428,271.14H432l3.83,11.68.23,1.11.24-1.11,3.77-11.68h4.06Z" transform="translate(-10.2 -208.45)"/><path class="cls-5" d="M323.5,280.1a3.22,3.22,0,0,0-1.25.58,2.26,2.26,0,0,0-.66.82,2.67,2.67,0,0,0-.21,1.06,2.28,2.28,0,0,0,.16.87,1.85,1.85,0,0,0,.5.68,2.62,2.62,0,0,0,.8.42,3.71,3.71,0,0,0,1.11.16,5,5,0,0,0,1.26-.16,4.83,4.83,0,0,0,1-.43,3.28,3.28,0,0,0,.8-.6,3,3,0,0,0,.54-.68v-2.91h-2.23A7.66,7.66,0,0,0,323.5,280.1Z" transform="translate(-10.2 -208.45)"/><path class="cls-5" d="M360.57,280.1a3.22,3.22,0,0,0-1.25.58,2.26,2.26,0,0,0-.66.82,2.68,2.68,0,0,0-.22,1.06,2.29,2.29,0,0,0,.17.87,1.85,1.85,0,0,0,.5.68,2.62,2.62,0,0,0,.8.42,3.71,3.71,0,0,0,1.11.16,5,5,0,0,0,1.26-.16,4.83,4.83,0,0,0,1-.43,3.28,3.28,0,0,0,.8-.6,3,3,0,0,0,.54-.68v-2.91h-2.23A7.66,7.66,0,0,0,360.57,280.1Z" transform="translate(-10.2 -208.45)"/><path class="cls-5" d="M155.65,267.76v24.29h2.73v3.05h-6.59V264.71h6.59v3.05Z" transform="translate(-10.2 -208.45)"/><path class="cls-5" d="M460.18,264.71V295.1h-6.59v-3.05h2.75V267.76h-2.75v-3.05Z" transform="translate(-10.2 -208.45)"/></svg>