<svg id="Layer_1" data-name="Layer 1" xmlns="http://www.w3.org/2000/svg" viewBox="0 0 490.77 95.52"><defs><style>.cls-1,.cls-2,.cls-3,.cls-4{fill:none;}.cls-1{stroke:#c69c6d;stroke-width:20px;}.cls-1,.cls-2,.cls-3{stroke-miterlimit:10;}.cls-2{stroke:#662d91;}.cls-2,.cls-3,.cls-4{stroke-linecap:round;stroke-width:6.93px;}.cls-3{stroke:#ba9bc9;}.cls-4{stroke:#333;stroke-linejoin:round;}.cls-5{fill:#333;}</style></defs><path class="cls-1" d="M26.13,269" transform="translate(-10.2 -221.19)"/><path class="cls-1" d="M97.68,269" transform="translate(-10.2 -221.19)"/><path class="cls-2" d="M22.74,269A35.22,35.22,0,1,1,58,304.17" transform="translate(-10.2 -221.19)"/><path class="cls-3" d="M80.69,269A22.74,22.74,0,1,1,58,246.21" transform="translate(-10.2 -221.19)"/><path class="cls-2" d="M46.57,269A11.39,11.39,0,1,1,58,280.34" transform="translate(-10.2 -221.19)"/><polyline class="cls-4" points="12.54 92.05 3.46 92.05 3.46 3.46 70.49 3.46"/><polyline class="cls-4" points="82.98 3.46 92.05 3.46 92.05 92.05 25.02 92.05"/><path class="cls-5" d="M132,311.27a16.75,16.75,0,0,1-5.29-4.95,21.36,21.36,0,0,1-3.15-6.83,28.8,28.8,0,0,1-1-7.33v-7.42c0-4.07-1-7-2.87-8.8s-4.84-2.69-8.76-2.69V264.7q5.88,0,8.76-2.67t2.87-8.92v-7.42a30.83,30.83,0,0,1,1.06-7.85,20,20,0,0,1,3.37-7.08,14.87,14.87,0,0,1,5.12-4.36,16.24,16.24,0,0,1,7.6-1.74l1.4,6.69a6.65,6.65,0,0,0-4.43,1.25,7.29,7.29,0,0,0-2.31,3.37,15.49,15.49,0,0,0-.91,4.66c-.09,1.72-.13,3.41-.13,5.06v7.42a17.49,17.49,0,0,1-2.63,9.57,16.26,16.26,0,0,1-8.14,6.31,16,16,0,0,1,8.17,6.25,17.42,17.42,0,0,1,2.6,9.5v7.42a42.08,42.08,0,0,0,.31,5.11,16.51,16.51,0,0,0,1.23,4.66,8.48,8.48,0,0,0,2.37,3.35,5.67,5.67,0,0,0,3.87,1.22l-1.4,6.74A14.6,14.6,0,0,1,132,311.27Z" transform="translate(-10.2 -221.19)"/><path class="cls-5" d="M474.66,305.28a8.6,8.6,0,0,0,2.38-3.35,19.25,19.25,0,0,0,1.22-4.66,36.9,36.9,0,0,0,.36-5.11v-7.42a19.39,19.39,0,0,1,.7-5.3,15.28,15.28,0,0,1,2.15-4.56,15.48,15.48,0,0,1,3.1-3.33,17.7,17.7,0,0,1,4.32-2.51,18.59,18.59,0,0,1-3.75-2.1,15.27,15.27,0,0,1-2.85-2.7,14.56,14.56,0,0,1-2.79-5.09,20.37,20.37,0,0,1-.88-6v-7.42c0-1.65-.05-3.34-.16-5.06a17.23,17.23,0,0,0-.88-4.66,7.72,7.72,0,0,0-2.33-3.37,6.66,6.66,0,0,0-4.46-1.25l1.41-6.69a16.09,16.09,0,0,1,8,1.94,15.78,15.78,0,0,1,5.36,5.11,19.93,19.93,0,0,1,2.92,6.72,31.43,31.43,0,0,1,.88,7.26v7.42a19.89,19.89,0,0,0,.47,4.55,9.79,9.79,0,0,0,1.47,3.37,7.73,7.73,0,0,0,3.81,2.78,17.1,17.1,0,0,0,5.83.89v8.55a16.6,16.6,0,0,0-6.11,1,7.63,7.63,0,0,0-3.8,3.17,9.92,9.92,0,0,0-1.26,3.17,18.48,18.48,0,0,0-.41,4.16v7.42a27.79,27.79,0,0,1-1,7.35,22.57,22.57,0,0,1-3.08,6.76,15.75,15.75,0,0,1-5.31,5.05,15.11,15.11,0,0,1-7.76,1.92l-1.41-6.74A5.67,5.67,0,0,0,474.66,305.28Z" transform="translate(-10.2 -221.19)"/><path class="cls-5" d="M157.21,240.38a6.23,6.23,0,0,1,2-2.49,5.21,5.21,0,0,1,3.1-.92,5.52,5.52,0,0,1,1.64.22,3.55,3.55,0,0,1,1.27.65,3.43,3.43,0,0,1,.73.79,5.14,5.14,0,0,1,.52,1.05,6,6,0,0,1,.75-1,5.21,5.21,0,0,1,.92-.78,5.07,5.07,0,0,1,1.41-.66,5.75,5.75,0,0,1,1.71-.24,5.81,5.81,0,0,1,2.19.41,4.55,4.55,0,0,1,1.76,1.31,6.6,6.6,0,0,1,1.17,2.36,13.11,13.11,0,0,1,.41,3.49v18.34h-5.57V244.52a3.92,3.92,0,0,0-.17-1.23,2.22,2.22,0,0,0-.45-.82,1.49,1.49,0,0,0-.65-.39,2.73,2.73,0,0,0-.83-.12,2.53,2.53,0,0,0-.8.12,2.61,2.61,0,0,0-.63.3,2.43,2.43,0,0,0-.44.47,2.46,2.46,0,0,0-.27.59v19.44h-5.43V244.5a4.46,4.46,0,0,0-.14-1.24,1.84,1.84,0,0,0-.4-.79,1.53,1.53,0,0,0-.66-.39,2.66,2.66,0,0,0-.82-.12,2.34,2.34,0,0,0-.87.14,1.93,1.93,0,0,0-.68.42,1.72,1.72,0,0,0-.36.47,3.47,3.47,0,0,0-.27.59v19.3h-5.58V237.44H157Z" transform="translate(-10.2 -221.19)"/><path class="cls-5" d="M195.39,258.18a5.37,5.37,0,0,0,1.63-.85,3.92,3.92,0,0,0,1.1-1.3,3.47,3.47,0,0,0,.38-1.71h5.73a7.47,7.47,0,0,1-.83,3.59,8.93,8.93,0,0,1-2.34,2.86,10.94,10.94,0,0,1-3.4,1.91,13,13,0,0,1-9.26-.32,10.37,10.37,0,0,1-3.7-2.75,11.91,11.91,0,0,1-2.25-4.06,15.94,15.94,0,0,1-.76-5v-.75a16.13,16.13,0,0,1,.75-5,11.58,11.58,0,0,1,2.26-4.09,10.57,10.57,0,0,1,3.69-2.76,12.32,12.32,0,0,1,5.15-1,12.72,12.72,0,0,1,4.3.71,10.42,10.42,0,0,1,3.41,2,8.87,8.87,0,0,1,2.22,3.07,9.6,9.6,0,0,1,.76,4H198.5a4.71,4.71,0,0,0-.34-1.87,4.49,4.49,0,0,0-1-1.52,4.83,4.83,0,0,0-1.62-1,5.53,5.53,0,0,0-2.07-.38,4.83,4.83,0,0,0-4.46,2.45,7.57,7.57,0,0,0-.93,2.52,15.73,15.73,0,0,0-.27,2.93v.75a15.8,15.8,0,0,0,.26,2.95A7.1,7.1,0,0,0,189,256a4.87,4.87,0,0,0,1.72,1.77,5.19,5.19,0,0,0,2.77.67A6.12,6.12,0,0,0,195.39,258.18Z" transform="translate(-10.2 -221.19)"/><path class="cls-5" d="M223.34,237.44v25.94a12.07,12.07,0,0,1-.71,4.34,7.7,7.7,0,0,1-2.09,3,8.58,8.58,0,0,1-3.33,1.81,15.86,15.86,0,0,1-4.49.59c-.43,0-.85,0-1.27,0s-.84,0-1.25-.09l-.93-.12-.93-.16.33-4.94a7.22,7.22,0,0,0,.84.13c.35,0,.71.06,1.09.08l1.05.06h.74a7.65,7.65,0,0,0,1.89-.23,4,4,0,0,0,1.54-.8,3.81,3.81,0,0,0,1-1.45,5.85,5.85,0,0,0,.38-2.24V242.45h-6.87v-5Zm-5.7-8.87a3.42,3.42,0,0,1,2.58-.95,3.54,3.54,0,0,1,2.59.93,3.08,3.08,0,0,1,1,2.33,3.16,3.16,0,0,1-1,2.37,3.54,3.54,0,0,1-2.59.93,3.5,3.5,0,0,1-2.57-.94,3.24,3.24,0,0,1-.94-2.36A3.18,3.18,0,0,1,217.64,228.57Z" transform="translate(-10.2 -221.19)"/><path class="cls-5" d="M251.2,261.76a13.45,13.45,0,0,1-.26-1.35,8,8,0,0,1-1.29,1.14,8.69,8.69,0,0,1-1.6.93,9.91,9.91,0,0,1-2,.64,10.89,10.89,0,0,1-2.26.23,11.2,11.2,0,0,1-3.61-.56,8.21,8.21,0,0,1-2.78-1.58,6.93,6.93,0,0,1-1.82-2.41,7.12,7.12,0,0,1-.65-3,8.14,8.14,0,0,1,.82-3.74,7,7,0,0,1,2.45-2.68,11,11,0,0,1,3.65-1.49,21.77,21.77,0,0,1,4.95-.51h3.88v-1.59a4.59,4.59,0,0,0-.3-1.72,3.47,3.47,0,0,0-.92-1.29,4.3,4.3,0,0,0-1.56-.87,6.74,6.74,0,0,0-2.16-.31,6.3,6.3,0,0,0-1.89.26,3.61,3.61,0,0,0-1.33.73,2.56,2.56,0,0,0-.73,1,3.72,3.72,0,0,0-.23,1.31h-6.09a6.57,6.57,0,0,1,.72-3,7.76,7.76,0,0,1,2.08-2.53,10.36,10.36,0,0,1,3.32-1.75,14.37,14.37,0,0,1,4.48-.65,15.4,15.4,0,0,1,4.23.56,10,10,0,0,1,3.41,1.65A8,8,0,0,1,256,242a8.54,8.54,0,0,1,.82,3.86v11.1a17.73,17.73,0,0,0,.25,3.23,8.58,8.58,0,0,0,.74,2.34v.4H251.6A5.19,5.19,0,0,1,251.2,261.76ZM247,258.31a7.35,7.35,0,0,0,1.62-.67,6,6,0,0,0,1.26-.93,4.92,4.92,0,0,0,.83-1.07V251.1h-3.48a11.52,11.52,0,0,0-2.89.31,5.18,5.18,0,0,0-2,.89,3.33,3.33,0,0,0-1,1.29,4,4,0,0,0-.34,1.65,3.49,3.49,0,0,0,.25,1.35,2.85,2.85,0,0,0,.78,1.07,3.87,3.87,0,0,0,1.25.65,5.7,5.7,0,0,0,1.74.25A7.54,7.54,0,0,0,247,258.31Z" transform="translate(-10.2 -221.19)"/><path class="cls-5" d="M262.77,237.44h6.32l6,18.2.36,1.74.37-1.74,5.88-18.2H288l-9.8,25.44h-5.55Z" transform="translate(-10.2 -221.19)"/><path class="cls-5" d="M309,261.76a11.13,11.13,0,0,1-.26-1.35,8.9,8.9,0,0,1-1.29,1.14,8.69,8.69,0,0,1-1.6.93,10.37,10.37,0,0,1-1.95.64,10.89,10.89,0,0,1-2.26.23,11.16,11.16,0,0,1-3.61-.56,8.11,8.11,0,0,1-2.78-1.58,7,7,0,0,1-1.83-2.41,7.12,7.12,0,0,1-.64-3,8.14,8.14,0,0,1,.82-3.74,7,7,0,0,1,2.44-2.68,11.13,11.13,0,0,1,3.66-1.49,21.77,21.77,0,0,1,4.95-.51h3.88v-1.59a4.4,4.4,0,0,0-.31-1.72,3.45,3.45,0,0,0-.91-1.29,4.35,4.35,0,0,0-1.57-.87,6.68,6.68,0,0,0-2.15-.31,6.3,6.3,0,0,0-1.89.26,3.61,3.61,0,0,0-1.33.73,2.56,2.56,0,0,0-.73,1,3.5,3.5,0,0,0-.23,1.31h-6.09a6.68,6.68,0,0,1,.71-3,7.8,7.8,0,0,1,2.09-2.53,10.16,10.16,0,0,1,3.32-1.75,14.32,14.32,0,0,1,4.48-.65,15.4,15.4,0,0,1,4.23.56,10.11,10.11,0,0,1,3.41,1.65,7.86,7.86,0,0,1,2.23,2.77,8.54,8.54,0,0,1,.83,3.86v11.1a18.77,18.77,0,0,0,.24,3.23,9.33,9.33,0,0,0,.74,2.34v.4h-6.2A5.19,5.19,0,0,1,309,261.76Zm-4.19-3.45a7.23,7.23,0,0,0,1.63-.67,5.73,5.73,0,0,0,1.25-.93,5,5,0,0,0,.84-1.07V251.1H305a11.52,11.52,0,0,0-2.89.31,5.18,5.18,0,0,0-1.95.89,3.45,3.45,0,0,0-1,1.29,4.13,4.13,0,0,0-.34,1.65,3.49,3.49,0,0,0,.26,1.35,2.74,2.74,0,0,0,.78,1.07,3.92,3.92,0,0,0,1.24.65,5.7,5.7,0,0,0,1.74.25A7.43,7.43,0,0,0,304.8,258.31Z" transform="translate(-10.2 -221.19)"/><path class="cls-5" d="M325.07,250.26v-4.92H344.3v4.92Z" transform="translate(-10.2 -221.19)"/><path class="cls-5" d="M348.37,237.44h5.55L356,252.8l.35,2.68.5-2.68,3-15.36h4l3,15.29.5,2.77.4-2.8,2.07-15.26h5.54l-4.74,25.44h-5.25l-3.05-14-.57-2.87-.54,2.87-3,14h-5.24Z" transform="translate(-10.2 -221.19)"/><path class="cls-5" d="M395.2,237.44V257.9h7.19v5H381.52v-5h7.54V242.45h-7.54v-5Zm-6.37-7.87a3,3,0,0,1,.73-1.06,3.12,3.12,0,0,1,1.09-.66,4.13,4.13,0,0,1,1.45-.23,3.49,3.49,0,0,1,2.41.8,2.89,2.89,0,0,1,1,2.09,2.86,2.86,0,0,1-.69,2.14,3.09,3.09,0,0,1-2.15,1,3.25,3.25,0,0,1-2.71-.26,2.52,2.52,0,0,1-1-1,3.12,3.12,0,0,1-.35-1.46A3.44,3.44,0,0,1,388.83,229.57Z" transform="translate(-10.2 -221.19)"/><path class="cls-5" d="M415,254.91v8H409V226.77H415v20.95l2.16-2.42,7.32-7.86h7.31l-9.74,10.61,11.12,14.83h-7.5l-7.64-10.79Z" transform="translate(-10.2 -221.19)"/><path class="cls-5" d="M453,237.44V257.9h7.19v5H439.3v-5h7.55V242.45H439.3v-5Zm-6.38-7.87a3,3,0,0,1,1.83-1.72,4.11,4.11,0,0,1,1.44-.23,3.46,3.46,0,0,1,2.41.8,3.09,3.09,0,0,1,.28,4.23,3.06,3.06,0,0,1-2.15,1,3.23,3.23,0,0,1-2.7-.26,2.46,2.46,0,0,1-1-1,3,3,0,0,1-.35-1.46A3.44,3.44,0,0,1,446.61,229.57Z" transform="translate(-10.2 -221.19)"/><path class="cls-5" d="M420.41,287.77a3.53,3.53,0,0,0-1.09-.75,3.86,3.86,0,0,0-1.5-.28,3.59,3.59,0,0,0-1.37.26,3,3,0,0,0-1.09.76,4.3,4.3,0,0,0-.81,1.19,5.9,5.9,0,0,0-.47,1.57h7.26v-.31a3.76,3.76,0,0,0-.24-1.32A3.42,3.42,0,0,0,420.41,287.77Z" transform="translate(-10.2 -221.19)"/><path class="cls-5" d="M400.83,287.27a3.35,3.35,0,0,0-1.88-.5,3.16,3.16,0,0,0-1.62.4,3.31,3.31,0,0,0-1.1,1.1,5.32,5.32,0,0,0-.61,1.64,9.85,9.85,0,0,0-.2,2v.31a9.51,9.51,0,0,0,.19,2,4.7,4.7,0,0,0,.62,1.61,3,3,0,0,0,1.07,1.09,3.19,3.19,0,0,0,1.62.39,3.33,3.33,0,0,0,1.91-.5,3.51,3.51,0,0,0,1.21-1.37v-6.8A3.55,3.55,0,0,0,400.83,287.27Z" transform="translate(-10.2 -221.19)"/><path class="cls-5" d="M163.19,275.75V309.3H448.78V275.75Zm67.64,3.08a2,2,0,0,1,.46-.68,2,2,0,0,1,.7-.42,2.75,2.75,0,0,1,.93-.15,2.26,2.26,0,0,1,1.55.51,1.87,1.87,0,0,1,.62,1.34,1.82,1.82,0,0,1-.44,1.37,2,2,0,0,1-1.38.64,2.13,2.13,0,0,1-.87.11,2.27,2.27,0,0,1-.87-.28,1.54,1.54,0,0,1-.64-.65,1.94,1.94,0,0,1-.23-.93A2.2,2.2,0,0,1,230.83,278.83Zm-37.07,0a1.88,1.88,0,0,1,1.17-1.1,2.65,2.65,0,0,1,.92-.15,2.26,2.26,0,0,1,1.55.51,2,2,0,0,1,.18,2.71,2,2,0,0,1-1.38.64,2.13,2.13,0,0,1-.87.11,2.17,2.17,0,0,1-.86-.28,1.51,1.51,0,0,1-.65-.65,1.94,1.94,0,0,1-.23-.93A2.2,2.2,0,0,1,193.76,278.83ZM182.14,300.2h-3.36l-2-9-.36-1.84-.35,1.84-1.9,9h-3.36l-3-16.32h3.56l1.36,9.85.22,1.72.32-1.72,1.93-9.85h2.6l1.94,9.8.32,1.78.25-1.79,1.33-9.79h3.56Zm20.32,0H189.07V297h4.84v-9.91h-4.84v-3.21h8.77V297h4.62Zm15,0-4.9-6.93-2,1.81v5.12h-3.89V277h3.89v13.44l1.39-1.55,4.69-5h4.69l-6.24,6.8,7.13,9.52Zm22.11,0H226.14V297H231v-9.91h-4.84v-3.21h8.77V297h4.62Zm13.32-.44a2.77,2.77,0,0,1-2,.74,2.69,2.69,0,0,1-2-.75,2.53,2.53,0,0,1-.73-1.85,2.76,2.76,0,1,1,5.52,0A2.49,2.49,0,0,1,252.85,299.76Zm24.4.44h-3.58V288.42a2.57,2.57,0,0,0-.1-.79,1.36,1.36,0,0,0-.29-.52,1,1,0,0,0-.42-.26,1.78,1.78,0,0,0-.53-.08,1.6,1.6,0,0,0-.51.08,1.74,1.74,0,0,0-.41.2,1.58,1.58,0,0,0-.28.3,1.1,1.1,0,0,0-.17.38V300.2h-3.49V288.4a3,3,0,0,0-.09-.79,1.23,1.23,0,0,0-.25-.5,1.06,1.06,0,0,0-.43-.26,1.72,1.72,0,0,0-.52-.08,1.56,1.56,0,0,0-.56.1,1.34,1.34,0,0,0-.44.27,1,1,0,0,0-.23.3,2.22,2.22,0,0,0-.18.38V300.2H261.2V283.88h3.36l.12,1.88a3.92,3.92,0,0,1,1.29-1.59,3.28,3.28,0,0,1,2-.59,3.77,3.77,0,0,1,1.05.13,2.22,2.22,0,0,1,.82.43,2,2,0,0,1,.46.5,3.22,3.22,0,0,1,.33.67,4.09,4.09,0,0,1,.49-.65,2.85,2.85,0,0,1,.59-.51,3.38,3.38,0,0,1,.9-.42,4,4,0,0,1,2.5.11,2.89,2.89,0,0,1,1.13.84,4,4,0,0,1,.75,1.51,8.13,8.13,0,0,1,.27,2.24Zm7.2-6a4.44,4.44,0,0,0,.61,1.62,3.25,3.25,0,0,0,1.1,1.14,3.42,3.42,0,0,0,1.78.43,3.87,3.87,0,0,0,1.23-.2,3.42,3.42,0,0,0,1-.54,2.38,2.38,0,0,0,.71-.84,2.21,2.21,0,0,0,.24-1.09h3.68a4.78,4.78,0,0,1-.53,2.3,5.75,5.75,0,0,1-1.5,1.83,7.26,7.26,0,0,1-2.18,1.23,7.68,7.68,0,0,1-2.63.44,8,8,0,0,1-3.31-.64,7,7,0,0,1-2.38-1.77,7.7,7.7,0,0,1-1.44-2.61,10.07,10.07,0,0,1-.49-3.2v-.48a10.45,10.45,0,0,1,.48-3.2,7.79,7.79,0,0,1,1.45-2.62,6.78,6.78,0,0,1,2.37-1.76,7.74,7.74,0,0,1,3.3-.65,8.15,8.15,0,0,1,2.76.45,6.41,6.41,0,0,1,2.19,1.27,5.5,5.5,0,0,1,1.42,2,6,6,0,0,1,.49,2.55h-3.68a3,3,0,0,0-.21-1.2,3,3,0,0,0-.66-1,3.18,3.18,0,0,0-1-.66,3.58,3.58,0,0,0-1.33-.25,3.08,3.08,0,0,0-2.86,1.57,5.22,5.22,0,0,0-.6,1.62,10.6,10.6,0,0,0-.17,1.88v.48A10.67,10.67,0,0,0,284.45,294.19ZM310,300.51a7.76,7.76,0,0,1-.46,2.79,5,5,0,0,1-1.34,1.95,5.53,5.53,0,0,1-2.14,1.16,10.15,10.15,0,0,1-2.88.38l-.82,0c-.27,0-.53,0-.79-.06l-.6-.07-.6-.11.22-3.17.53.09.7.05.67,0H303a4.72,4.72,0,0,0,1.21-.16,2.46,2.46,0,0,0,1-.51,2.39,2.39,0,0,0,.65-.93,3.73,3.73,0,0,0,.24-1.44V287.09h-4.4v-3.21H310Zm-.34-19.32a2.33,2.33,0,0,1-1.67.59,2.22,2.22,0,0,1-1.64-.6,2.15,2.15,0,0,1,0-3,2.2,2.2,0,0,1,1.65-.61,2.29,2.29,0,0,1,1.67.59,2.17,2.17,0,0,1,0,3Zm22.44,19h-4a3.54,3.54,0,0,1-.25-.72,7.45,7.45,0,0,1-.17-.87,5.4,5.4,0,0,1-.83.74,6.32,6.32,0,0,1-1,.59,6.59,6.59,0,0,1-2.7.56,7.1,7.1,0,0,1-2.32-.36,5.38,5.38,0,0,1-1.79-1,4.6,4.6,0,0,1-1.58-3.49,5.3,5.3,0,0,1,.53-2.4,4.35,4.35,0,0,1,1.57-1.71,6.76,6.76,0,0,1,2.34-1,13.87,13.87,0,0,1,3.18-.33h2.49v-1a2.92,2.92,0,0,0-.2-1.1,2.22,2.22,0,0,0-.59-.83,2.77,2.77,0,0,0-1-.56,4.46,4.46,0,0,0-1.38-.2,4.08,4.08,0,0,0-1.22.17,2.32,2.32,0,0,0-.85.47,1.78,1.78,0,0,0-.47.65,2.32,2.32,0,0,0-.15.84h-3.9a4.18,4.18,0,0,1,.46-1.92,4.85,4.85,0,0,1,1.33-1.62,6.69,6.69,0,0,1,2.14-1.13,9.33,9.33,0,0,1,2.87-.41,10.15,10.15,0,0,1,2.71.35,6.4,6.4,0,0,1,2.19,1.07,5.06,5.06,0,0,1,1.43,1.77,5.39,5.39,0,0,1,.53,2.48v7.12a11.31,11.31,0,0,0,.16,2.07,5.76,5.76,0,0,0,.47,1.5Zm13.08,0h-3.56l-6.33-16.32h4.05l3.83,11.67.23,1.12.24-1.12,3.77-11.67h4.06Zm24,0h-4a3.54,3.54,0,0,1-.25-.72,7.45,7.45,0,0,1-.17-.87,5.4,5.4,0,0,1-.83.74,6.32,6.32,0,0,1-1,.59,6.59,6.59,0,0,1-2.7.56,7.1,7.1,0,0,1-2.32-.36,5.38,5.38,0,0,1-1.79-1,4.51,4.51,0,0,1-1.58-3.49,5.3,5.3,0,0,1,.53-2.4,4.35,4.35,0,0,1,1.57-1.71,6.76,6.76,0,0,1,2.34-1,13.87,13.87,0,0,1,3.18-.33h2.48v-1a2.92,2.92,0,0,0-.19-1.1,2.22,2.22,0,0,0-.59-.83,2.86,2.86,0,0,0-1-.56,4.46,4.46,0,0,0-1.38-.2,4,4,0,0,0-1.22.17,2.32,2.32,0,0,0-.85.47,1.67,1.67,0,0,0-.47.65,2.32,2.32,0,0,0-.15.84h-3.9a4.18,4.18,0,0,1,.46-1.92,4.85,4.85,0,0,1,1.33-1.62,6.59,6.59,0,0,1,2.14-1.13,9.33,9.33,0,0,1,2.87-.41,10.15,10.15,0,0,1,2.71.35A6.4,6.4,0,0,1,366.6,285a5.06,5.06,0,0,1,1.43,1.77,5.52,5.52,0,0,1,.53,2.48v7.12a11.31,11.31,0,0,0,.16,2.07,5.4,5.4,0,0,0,.47,1.5Zm13.4-.44a2.75,2.75,0,0,1-2,.74,2.69,2.69,0,0,1-2-.75,2.53,2.53,0,0,1-.73-1.85,2.56,2.56,0,0,1,2.74-2.65,2.7,2.7,0,0,1,2.05.76,2.62,2.62,0,0,1,.73,1.89A2.49,2.49,0,0,1,382.59,299.76Zm23.36.44h-3.53l-.2-1.71a5.32,5.32,0,0,1-1.83,1.48,5.51,5.51,0,0,1-2.47.53,5.66,5.66,0,0,1-2.67-.63,5.79,5.79,0,0,1-2-1.72,8.53,8.53,0,0,1-1.28-2.64,11.82,11.82,0,0,1-.44-3.28v-.31a12.12,12.12,0,0,1,.44-3.4,7.94,7.94,0,0,1,1.26-2.63,5.8,5.8,0,0,1,2-1.71,6,6,0,0,1,2.7-.6,5.33,5.33,0,0,1,2.33.47,5.47,5.47,0,0,1,1.76,1.32V277H406Zm19.24-6.93H414v.07a6.51,6.51,0,0,0,.54,1.68,4.18,4.18,0,0,0,2.29,2,4.73,4.73,0,0,0,1.71.3,6,6,0,0,0,2.45-.5,4.79,4.79,0,0,0,1.9-1.44l2,2.06a7,7,0,0,1-2.51,2.09,8.42,8.42,0,0,1-4.08.93,8.91,8.91,0,0,1-3.37-.61,7.88,7.88,0,0,1-2.6-1.68,7.37,7.37,0,0,1-1.67-2.5,8,8,0,0,1-.59-3.1V292a9.68,9.68,0,0,1,.59-3.45,7.94,7.94,0,0,1,1.66-2.66,7.54,7.54,0,0,1,2.48-1.71,8.28,8.28,0,0,1,6.19,0,6.56,6.56,0,0,1,2.32,1.64,7.07,7.07,0,0,1,1.42,2.54,10.59,10.59,0,0,1,.48,3.27Zm12.68,6.93h-3.56L428,283.88H432l3.83,11.67.22,1.12.24-1.12,3.78-11.67h4.05Z" transform="translate(-10.2 -221.19)"/><path class="cls-5" d="M323.5,292.84a3.37,3.37,0,0,0-1.25.57,2.19,2.19,0,0,0-.66.83,2.45,2.45,0,0,0-.22,1.06,2.2,2.2,0,0,0,.17.86,1.71,1.71,0,0,0,.5.69,2.36,2.36,0,0,0,.79.41,3.52,3.52,0,0,0,1.12.16,4.5,4.5,0,0,0,1.25-.16,4.49,4.49,0,0,0,1.85-1,3.62,3.62,0,0,0,.54-.69v-2.91h-2.24A7.58,7.58,0,0,0,323.5,292.84Z" transform="translate(-10.2 -221.19)"/><path class="cls-5" d="M360.57,292.84a3.29,3.29,0,0,0-1.25.57,2.19,2.19,0,0,0-.66.83,2.45,2.45,0,0,0-.22,1.06,2.2,2.2,0,0,0,.17.86,1.78,1.78,0,0,0,.49.69,2.51,2.51,0,0,0,.8.41,3.52,3.52,0,0,0,1.12.16,4.5,4.5,0,0,0,1.25-.16,4.49,4.49,0,0,0,1.85-1,3.19,3.19,0,0,0,.53-.69v-2.91h-2.23A7.58,7.58,0,0,0,360.57,292.84Z" transform="translate(-10.2 -221.19)"/><path class="cls-5" d="M155.64,280.49v24.3h2.73v3h-6.59V277.45h6.59v3Z" transform="translate(-10.2 -221.19)"/><path class="cls-5" d="M460.18,277.45v30.39h-6.59v-3h2.74v-24.3h-2.74v-3Z" transform="translate(-10.2 -221.19)"/></svg>